<?xml version="1.0" standalone="no"?>
<!DOCTYPE svg PUBLIC "-//W3C//DTD SVG 20010904//EN"
 "http://www.w3.org/TR/2001/REC-SVG-20010904/DTD/svg10.dtd">
<svg version="1.0" xmlns="http://www.w3.org/2000/svg"
 width="700.000000pt" height="700.000000pt" viewBox="0 0 700.000000 700.000000"
 preserveAspectRatio="xMidYMid meet">
<metadata>
Created by potrace 1.11, written by Peter Selinger 2001-2013
</metadata>
<g transform="translate(0.000000,700.000000) scale(0.100000,-0.100000)"
fill="#000000" stroke="none">
<path d="M3288 6985 c-2 -1 -50 -6 -108 -9 -58 -4 -124 -9 -145 -11 -180 -19
-247 -27 -295 -35 -30 -5 -71 -12 -90 -15 -34 -6 -256 -50 -295 -60 -11 -2
-42 -10 -70 -16 -27 -6 -67 -21 -88 -32 -36 -20 -43 -32 -49 -86 -3 -21 -17
-29 -128 -67 l-125 -44 -23 25 c-27 29 -61 40 -99 30 -43 -10 -301 -137 -409
-200 -89 -53 -282 -180 -294 -194 -3 -3 -39 -33 -80 -65 -67 -54 -110 -92
-228 -206 -258 -248 -517 -652 -652 -1020 -36 -98 -43 -128 -45 -203 -2 -48 1
-104 7 -125 18 -67 67 -157 115 -211 l48 -53 -70 -72 c-125 -127 -166 -243
-162 -456 3 -115 7 -146 29 -207 61 -170 184 -291 361 -353 l52 -18 0 -306 1
-305 -31 -7 c-71 -15 -180 -79 -245 -144 -59 -59 -134 -177 -145 -228 -2 -9
-8 -37 -14 -62 -18 -75 -7 -294 17 -371 55 -168 196 -308 361 -360 l56 -17 1
-82 c3 -136 11 -204 40 -320 64 -255 222 -501 429 -665 28 -22 52 -42 55 -45
5 -5 51 -35 126 -82 156 -99 412 -196 626 -239 54 -11 65 -12 178 -26 87 -11
3104 -10 3200 0 113 13 126 15 157 21 15 4 37 8 48 10 44 9 154 39 220 61 521
174 873 514 985 953 33 131 42 194 44 325 l1 88 65 23 c185 64 334 233 368
416 13 65 8 293 -7 345 -51 184 -211 349 -384 395 l-47 13 2 304 3 305 52 18
c88 31 142 62 203 118 136 122 193 264 189 470 -3 193 -47 308 -164 428 l-70
72 47 52 c119 133 155 320 95 495 -81 236 -237 531 -390 738 -384 519 -912
887 -1572 1096 -72 23 -144 46 -162 52 -18 5 -40 12 -50 14 -10 2 -49 11 -88
20 -132 31 -150 35 -180 40 -16 3 -82 14 -145 24 -63 11 -140 23 -170 26 -30
4 -68 8 -85 10 -16 2 -66 6 -110 10 -44 4 -98 9 -120 11 -46 6 -542 14 -547 9z"/>
</g>
</svg>
